<svg width="24" height="24" viewBox="0 0 24 24" fill="none" xmlns="http://www.w3.org/2000/svg">
<path d="M22 9.13686C22 16.0656 12.2697 21.6739 11.8553 21.9055C11.7461 21.9675 11.624 22 11.5 22C11.376 22 11.2539 21.9675 11.1447 21.9055C10.7303 21.6739 1 16.0656 1 9.13686C1.00174 7.50983 1.61468 5.94996 2.70436 4.79947C3.79404 3.64898 5.27146 3.00183 6.8125 3C8.74844 3 10.4434 3.87896 11.5 5.36467C12.5566 3.87896 14.2516 3 16.1875 3C17.7285 3.00183 19.206 3.64898 20.2956 4.79947C21.3853 5.94996 21.9983 7.50983 22 9.13686Z" fill="#2563EB"/>
<path d="M21.2551 6.97382L11.7551 16.4738C11.6723 16.5568 11.574 16.6227 11.4658 16.6677C11.3575 16.7126 11.2414 16.7358 11.1242 16.7358C11.007 16.7358 10.8909 16.7126 10.7827 16.6677C10.6744 16.6227 10.5761 16.5568 10.4934 16.4738L6.33712 12.3176C6.25427 12.2347 6.18855 12.1364 6.14372 12.0281C6.09888 11.9199 6.07581 11.8039 6.07581 11.6867C6.07581 11.5695 6.09888 11.4535 6.14372 11.3453C6.18855 11.237 6.25427 11.1387 6.33712 11.0558C6.41996 10.973 6.51831 10.9073 6.62656 10.8624C6.7348 10.8176 6.85081 10.7945 6.96798 10.7945C7.08514 10.7945 7.20115 10.8176 7.30939 10.8624C7.41764 10.9073 7.51599 10.973 7.59884 11.0558L11.125 14.582L19.9948 5.71358C20.1622 5.54627 20.3891 5.45227 20.6257 5.45227C20.8623 5.45227 21.0893 5.54627 21.2566 5.71358C21.4239 5.8809 21.5179 6.10782 21.5179 6.34444C21.5179 6.58106 21.4239 6.80799 21.2566 6.9753L21.2551 6.97382Z" fill="white"/>
</svg>
