<svg width="108" height="24" viewBox="0 0 108 24" fill="none" xmlns="http://www.w3.org/2000/svg">
<path d="M101.213 15.2614L101.207 12.7784H101.537L104.673 9.27274H107.077L103.219 13.5682H102.793L101.213 15.2614ZM99.3381 18V6.36365H101.395V18H99.3381ZM104.815 18L101.975 14.0284L103.361 12.5796L107.276 18H104.815Z" fill="#0066FF"/>
<path d="M97.4546 11.5796L95.5796 11.7842C95.5266 11.5948 95.4338 11.4168 95.3012 11.2501C95.1724 11.0834 94.9982 10.949 94.7785 10.8467C94.5588 10.7444 94.2898 10.6933 93.9717 10.6933C93.5436 10.6933 93.1838 10.7861 92.8921 10.9717C92.6042 11.1573 92.4622 11.3978 92.466 11.6933C92.4622 11.9471 92.555 12.1535 92.7444 12.3126C92.9376 12.4717 93.2558 12.6024 93.6989 12.7046L95.1876 13.0228C96.0133 13.2008 96.627 13.483 97.0285 13.8694C97.4338 14.2558 97.6383 14.7615 97.6421 15.3865C97.6383 15.9357 97.4773 16.4205 97.1592 16.841C96.8448 17.2577 96.4073 17.5834 95.8467 17.8183C95.2861 18.0531 94.6421 18.1705 93.9148 18.1705C92.8467 18.1705 91.9868 17.9471 91.3353 17.5001C90.6838 17.0493 90.2955 16.4224 90.1705 15.6194L92.1762 15.4262C92.2671 15.8202 92.4603 16.1175 92.7558 16.3183C93.0512 16.519 93.4357 16.6194 93.9092 16.6194C94.3978 16.6194 94.7898 16.519 95.0853 16.3183C95.3845 16.1175 95.5342 15.8694 95.5342 15.574C95.5342 15.324 95.4376 15.1175 95.2444 14.9546C95.055 14.7918 94.7595 14.6668 94.358 14.5796L92.8694 14.2671C92.0323 14.0929 91.413 13.7993 91.0114 13.3865C90.6099 12.9698 90.4111 12.4433 90.4148 11.8069C90.4111 11.269 90.5569 10.8031 90.8523 10.4092C91.1516 10.0115 91.5664 9.70463 92.0967 9.48872C92.6308 9.26903 93.2463 9.15918 93.9433 9.15918C94.966 9.15918 95.7709 9.37698 96.358 9.81259C96.9489 10.2482 97.3145 10.8372 97.4546 11.5796Z" fill="#0066FF"/>
<path d="M83.8807 18.1762C83.3276 18.1762 82.8295 18.0777 82.3863 17.8808C81.9469 17.68 81.5985 17.3846 81.3409 16.9944C81.0871 16.6043 80.9602 16.1232 80.9602 15.5512C80.9602 15.0588 81.0511 14.6516 81.2329 14.3296C81.4148 14.0077 81.6629 13.7501 81.9772 13.5569C82.2916 13.3637 82.6458 13.2179 83.0397 13.1194C83.4375 13.0171 83.8485 12.9433 84.2727 12.8978C84.7841 12.8448 85.1988 12.7974 85.517 12.7558C85.8352 12.7103 86.0663 12.6421 86.2102 12.5512C86.3579 12.4565 86.4318 12.3107 86.4318 12.1137V12.0796C86.4318 11.6516 86.3049 11.3202 86.0511 11.0853C85.7973 10.8505 85.4318 10.733 84.9545 10.733C84.4507 10.733 84.0511 10.8429 83.7557 11.0626C83.464 11.2823 83.267 11.5418 83.1647 11.841L81.2443 11.5683C81.3958 11.038 81.6458 10.5948 81.9943 10.2387C82.3428 9.87888 82.7689 9.60994 83.2727 9.43191C83.7765 9.25009 84.3333 9.15918 84.9432 9.15918C85.3636 9.15918 85.7822 9.20842 86.1988 9.30691C86.6155 9.40539 86.9962 9.56827 87.3409 9.79554C87.6856 10.019 87.9621 10.324 88.1704 10.7103C88.3826 11.0967 88.4886 11.5796 88.4886 12.1592V18.0001H86.5113V16.8012H86.4432C86.3182 17.0436 86.142 17.2709 85.9147 17.483C85.6913 17.6914 85.4091 17.8599 85.0682 17.9887C84.731 18.1137 84.3352 18.1762 83.8807 18.1762ZM84.4147 16.6649C84.8276 16.6649 85.1856 16.5834 85.4886 16.4205C85.7916 16.2539 86.0246 16.0342 86.1875 15.7615C86.3541 15.4887 86.4375 15.1914 86.4375 14.8694V13.841C86.3731 13.894 86.2632 13.9433 86.1079 13.9887C85.9564 14.0342 85.786 14.074 85.5966 14.108C85.4072 14.1421 85.2197 14.1724 85.0341 14.199C84.8485 14.2255 84.6875 14.2482 84.5511 14.2671C84.2443 14.3088 83.9697 14.377 83.7272 14.4717C83.4848 14.5664 83.2935 14.699 83.1534 14.8694C83.0132 15.0361 82.9432 15.252 82.9432 15.5171C82.9432 15.8959 83.0814 16.1819 83.3579 16.3751C83.6344 16.5683 83.9867 16.6649 84.4147 16.6649Z" fill="#0066FF"/>
<path d="M79.6491 9.27279V10.8637H74.6321V9.27279H79.6491ZM75.8707 7.18188H77.9275V15.3751C77.9275 15.6516 77.9692 15.8637 78.0525 16.0114C78.1397 16.1554 78.2533 16.2539 78.3934 16.3069C78.5336 16.3599 78.6889 16.3864 78.8594 16.3864C78.9881 16.3864 79.1056 16.377 79.2116 16.358C79.3215 16.3391 79.4048 16.322 79.4616 16.3069L79.8082 17.9148C79.6984 17.9527 79.5412 17.9944 79.3366 18.0398C79.1359 18.0853 78.8897 18.1118 78.598 18.1194C78.0828 18.1345 77.6188 18.0569 77.2059 17.8864C76.7931 17.7122 76.4654 17.4432 76.223 17.0796C75.9844 16.716 75.8669 16.2614 75.8707 15.716V7.18188Z" fill="#0066FF"/>
<path d="M69.6705 18.1705C68.7955 18.1705 68.0398 17.9887 67.4035 17.6251C66.7709 17.2577 66.2842 16.7387 65.9432 16.0683C65.6023 15.394 65.4319 14.6005 65.4319 13.6876C65.4319 12.7899 65.6023 12.002 65.9432 11.324C66.2879 10.6421 66.769 10.1118 67.3864 9.73304C68.0039 9.35047 68.7292 9.15918 69.5626 9.15918C70.1004 9.15918 70.608 9.2463 71.0853 9.42054C71.5664 9.591 71.9906 9.85615 72.358 10.216C72.7292 10.5758 73.0209 11.0342 73.233 11.591C73.4451 12.144 73.5512 12.8031 73.5512 13.5683V14.199H66.3978V12.8126H71.5796C71.5758 12.4186 71.4906 12.0683 71.3239 11.7615C71.1573 11.4508 70.9243 11.2065 70.6251 11.0285C70.3296 10.8505 69.9849 10.7615 69.591 10.7615C69.1705 10.7615 68.8012 10.8637 68.483 11.0683C68.1648 11.269 67.9167 11.5342 67.7387 11.8637C67.5645 12.1895 67.4754 12.5474 67.4717 12.9376V14.1478C67.4717 14.6554 67.5645 15.091 67.7501 15.4546C67.9357 15.8145 68.1951 16.091 68.5285 16.2842C68.8618 16.4736 69.252 16.5683 69.6989 16.5683C69.9982 16.5683 70.269 16.5266 70.5114 16.4433C70.7539 16.3561 70.9641 16.2293 71.1421 16.0626C71.3201 15.8959 71.4546 15.6895 71.5455 15.4433L73.466 15.6592C73.3448 16.1668 73.1137 16.6099 72.7728 16.9887C72.4357 17.3637 72.0039 17.6554 71.4773 17.8637C70.9508 18.0683 70.3486 18.1705 69.6705 18.1705Z" fill="#0066FF"/>
<path d="M63.6918 6.36365V18H61.635V6.36365H63.6918Z" fill="#0066FF"/>
<path d="M59.7272 9.27279V10.8637H54.7102V9.27279H59.7272ZM55.9488 7.18188H58.0057V15.3751C58.0057 15.6516 58.0473 15.8637 58.1307 16.0114C58.2178 16.1554 58.3314 16.2539 58.4716 16.3069C58.6117 16.3599 58.767 16.3864 58.9375 16.3864C59.0663 16.3864 59.1837 16.377 59.2897 16.358C59.3996 16.3391 59.4829 16.322 59.5397 16.3069L59.8863 17.9148C59.7765 17.9527 59.6193 17.9944 59.4147 18.0398C59.214 18.0853 58.9678 18.1118 58.6761 18.1194C58.161 18.1345 57.6969 18.0569 57.2841 17.8864C56.8712 17.7122 56.5435 17.4432 56.3011 17.0796C56.0625 16.716 55.9451 16.2614 55.9488 15.716V7.18188Z" fill="#0066FF"/>
<path d="M47.6762 12.8865V18.0001H45.6194V9.27282H47.5853V10.7558H47.6876C47.8883 10.2671 48.2084 9.87888 48.6478 9.591C49.091 9.30312 49.6383 9.15918 50.2898 9.15918C50.8921 9.15918 51.4167 9.28797 51.8637 9.54554C52.3145 9.80312 52.6629 10.1762 52.9092 10.6649C53.1592 11.1535 53.2823 11.7463 53.2785 12.4433V18.0001H51.2217V12.7615C51.2217 12.1781 51.0701 11.7217 50.7671 11.3921C50.4679 11.0626 50.0531 10.8978 49.5228 10.8978C49.1629 10.8978 48.8429 10.9774 48.5626 11.1365C48.2861 11.2918 48.0682 11.5171 47.9092 11.8126C47.7539 12.108 47.6762 12.466 47.6762 12.8865Z" fill="#0066FF"/>
<path d="M39.9986 18.1705C39.1236 18.1705 38.368 17.9887 37.7316 17.6251C37.099 17.2577 36.6123 16.7387 36.2714 16.0683C35.9305 15.394 35.76 14.6005 35.76 13.6876C35.76 12.7899 35.9305 12.002 36.2714 11.324C36.6161 10.6421 37.0971 10.1118 37.7146 9.73304C38.332 9.35047 39.0574 9.15918 39.8907 9.15918C40.4286 9.15918 40.9361 9.2463 41.4134 9.42054C41.8945 9.591 42.3187 9.85615 42.6861 10.216C43.0574 10.5758 43.349 11.0342 43.5611 11.591C43.7733 12.144 43.8793 12.8031 43.8793 13.5683V14.199H36.7259V12.8126H41.9077C41.904 12.4186 41.8187 12.0683 41.6521 11.7615C41.4854 11.4508 41.2524 11.2065 40.9532 11.0285C40.6577 10.8505 40.313 10.7615 39.9191 10.7615C39.4986 10.7615 39.1293 10.8637 38.8111 11.0683C38.493 11.269 38.2449 11.5342 38.0668 11.8637C37.8926 12.1895 37.8036 12.5474 37.7998 12.9376V14.1478C37.7998 14.6554 37.8926 15.091 38.0782 15.4546C38.2638 15.8145 38.5233 16.091 38.8566 16.2842C39.1899 16.4736 39.5801 16.5683 40.0271 16.5683C40.3263 16.5683 40.5971 16.5266 40.8396 16.4433C41.082 16.3561 41.2922 16.2293 41.4702 16.0626C41.6483 15.8959 41.7827 15.6895 41.8736 15.4433L43.7941 15.6592C43.6729 16.1668 43.4418 16.6099 43.1009 16.9887C42.7638 17.3637 42.332 17.6554 41.8055 17.8637C41.2789 18.0683 40.6767 18.1705 39.9986 18.1705Z" fill="#0066FF"/>
<path d="M31.9432 10.0796C31.8485 9.77277 31.7178 9.49815 31.5512 9.25573C31.3883 9.00951 31.1913 8.79929 30.9602 8.62504C30.733 8.4508 30.4716 8.32012 30.1762 8.233C29.8807 8.14209 29.5587 8.09664 29.2102 8.09664C28.5852 8.09664 28.0284 8.25383 27.5398 8.56823C27.0512 8.88262 26.6667 9.34474 26.3864 9.95459C26.1099 10.5607 25.9716 11.2993 25.9716 12.1705C25.9716 13.0493 26.1099 13.7936 26.3864 14.4035C26.6629 15.0133 27.0474 15.4773 27.5398 15.7955C28.0322 16.1099 28.6042 16.2671 29.2557 16.2671C29.8466 16.2671 30.358 16.1535 30.7898 15.9262C31.2254 15.6989 31.5606 15.3769 31.7955 14.9603C32.0303 14.5398 32.1477 14.0474 32.1477 13.483L32.625 13.5569H29.4659V11.9091H34.1875V13.3069C34.1875 14.3031 33.9754 15.1648 33.5512 15.8921C33.1269 16.6194 32.5436 17.18 31.8012 17.5739C31.0587 17.9641 30.2065 18.1591 29.2443 18.1591C28.1724 18.1591 27.2311 17.9186 26.4205 17.4375C25.6137 16.9527 24.983 16.2652 24.5284 15.375C24.0777 14.4811 23.8523 13.4205 23.8523 12.1932C23.8523 11.2538 23.9849 10.4148 24.25 9.67618C24.519 8.93754 24.894 8.31065 25.375 7.7955C25.8561 7.27656 26.4205 6.88262 27.0682 6.61368C27.7159 6.34095 28.4205 6.20459 29.1818 6.20459C29.8258 6.20459 30.4262 6.29929 30.983 6.48868C31.5398 6.67429 32.0341 6.93944 32.4659 7.28414C32.9015 7.62883 33.2595 8.03792 33.5398 8.51141C33.8201 8.98489 34.0038 9.50762 34.0909 10.0796H31.9432Z" fill="#0066FF"/>
<path d="M22 9.13686C22 16.0656 12.2697 21.6739 11.8553 21.9055C11.7461 21.9675 11.624 22 11.5 22C11.376 22 11.2539 21.9675 11.1447 21.9055C10.7303 21.6739 1 16.0656 1 9.13686C1.00174 7.50983 1.61468 5.94996 2.70436 4.79947C3.79404 3.64898 5.27146 3.00183 6.8125 3C8.74844 3 10.4434 3.87896 11.5 5.36467C12.5566 3.87896 14.2516 3 16.1875 3C17.7285 3.00183 19.206 3.64898 20.2956 4.79947C21.3853 5.94996 21.9983 7.50983 22 9.13686Z" fill="#2563EB"/>
<path d="M21.2552 6.97382L11.7552 16.4738C11.6725 16.5568 11.5741 16.6227 11.4659 16.6677C11.3576 16.7126 11.2416 16.7358 11.1243 16.7358C11.0071 16.7358 10.8911 16.7126 10.7828 16.6677C10.6745 16.6227 10.5762 16.5568 10.4935 16.4738L6.33724 12.3176C6.25439 12.2347 6.18868 12.1364 6.14384 12.0281C6.099 11.9199 6.07593 11.8039 6.07593 11.6867C6.07593 11.5695 6.099 11.4535 6.14384 11.3453C6.18868 11.237 6.25439 11.1387 6.33724 11.0558C6.42008 10.973 6.51844 10.9073 6.62668 10.8624C6.73492 10.8176 6.85094 10.7945 6.9681 10.7945C7.08526 10.7945 7.20127 10.8176 7.30952 10.8624C7.41776 10.9073 7.51611 10.973 7.59896 11.0558L11.1251 14.582L19.995 5.71358C20.1623 5.54627 20.3892 5.45227 20.6258 5.45227C20.8624 5.45227 21.0894 5.54627 21.2567 5.71358C21.424 5.8809 21.518 6.10782 21.518 6.34444C21.518 6.58106 21.424 6.80799 21.2567 6.9753L21.2552 6.97382Z" fill="white"/>
</svg>
